# xmcd CD database file
#
# Track frame offsets:
#	187
#	23062
#	43612
#	60337
#	84712
#	112912
#	134437
#	151087
#	170887
#	186787
#	210862
#
# Disc length: 3177 seconds
#
# Revision: 1
# Processed by: cddbd v1.5PL3 Copyright (c) Steve Scherf et al.
# Submitted via: CDex 1.50
#
DISCID=860c670b
DTITLE=Son House - Father Of The Delta Blues
DYEAR=1992
DGENRE=Blues
TTITLE0=Death Letter
TTITLE1=Pearline
TTITLE2=Empire State Express
TTITLE3=Preachin' Blues
TTITLE4=Sundown
TTITLE5=Levee Camp Moan
TTITLE6=President Kennedy
TTITLE7=Motherless Children
TTITLE8=Yonder Comes My Mother
TTITLE9=Pony Blues
TTITLE10=Downhearted Blues
EXTD=YEAR: 1992
EXTT0=
EXTT1=
EXTT2=
EXTT3=
EXTT4=
EXTT5=
EXTT6=
EXTT7=
EXTT8=
EXTT9=
EXTT10=
PLAYORDER=
